<?xml version="1.0" encoding="UTF-8" standalone="no"?>
<!-- Created with Inkscape (http://www.inkscape.org/) -->

<svg
   width="50.023788mm"
   height="42.320393mm"
   viewBox="0 0 50.023788 42.320393"
   version="1.1"
   id="svg5"
   xml:space="preserve"
   inkscape:version="1.2.2 (732a01da63, 2022-12-09)"
   sodipodi:docname="pot.svg"
   xmlns:inkscape="http://www.inkscape.org/namespaces/inkscape"
   xmlns:sodipodi="http://sodipodi.sourceforge.net/DTD/sodipodi-0.dtd"
   xmlns="http://www.w3.org/2000/svg"
   xmlns:svg="http://www.w3.org/2000/svg"><sodipodi:namedview
     id="namedview7"
     pagecolor="#ffffff"
     bordercolor="#000000"
     borderopacity="0.25"
     inkscape:showpageshadow="2"
     inkscape:pageopacity="0.0"
     inkscape:pagecheckerboard="0"
     inkscape:deskcolor="#d1d1d1"
     inkscape:document-units="mm"
     showgrid="false"
     inkscape:zoom="0.914906"
     inkscape:cx="36.069279"
     inkscape:cy="63.940995"
     inkscape:window-width="1350"
     inkscape:window-height="1230"
     inkscape:window-x="3475"
     inkscape:window-y="123"
     inkscape:window-maximized="0"
     inkscape:current-layer="layer1" /><defs
     id="defs2" /><g
     inkscape:label="Layer 1"
     inkscape:groupmode="layer"
     id="layer1"
     transform="translate(-79.988104,-148.93513)"><path
       style="fill:#8ea080;stroke-width:0.264583;stroke:none;fill-opacity:1"
       d="m 97.314482,190.86726 c -0.92424,-0.40258 -1.55757,-1.2549 -1.81987,-2.44911 -0.14134,-0.64354 -0.55955,-1.07305 -1.86993,-1.92049 -3.33461,-2.15654 -6.49333,-5.93623 -7.9414,-9.50259 l -0.60847,-1.49857 -1.91748,-0.15212 c -1.66225,-0.13187 -2.0002,-0.24829 -2.53897,-0.87465 -0.8362,-0.97213 -0.84092,-2.52509 -0.0106,-3.49038 0.47455,-0.55169 0.9182,-0.73972 1.98787,-0.8425 1.17564,-0.11296 1.40004,-0.22417 1.53466,-0.76055 0.0867,-0.34553 0.51101,-0.92554 0.94285,-1.28892 l 0.78518,-0.66068 h 19.141688 19.14169 l 0.78517,0.66068 c 0.43184,0.36338 0.85613,0.94339 0.94285,1.28892 0.13462,0.53638 0.35903,0.64759 1.53466,0.76055 1.06967,0.10278 1.51333,0.29081 1.98787,0.8425 0.8303,0.96529 0.82558,2.51825 -0.0106,3.49038 -0.53877,0.62636 -0.87672,0.74278 -2.53897,0.87465 l -1.91748,0.15212 -0.60847,1.49857 c -1.45061,3.57263 -4.53235,7.26171 -7.89799,9.45451 -1.3503,0.87975 -1.76844,1.30881 -1.91185,1.96176 -0.26953,1.22714 -0.90347,2.05926 -1.87953,2.46709 -1.21895,0.50931 -14.139578,0.49989 -15.312848,-0.0112 z m -7.32193,-26.60476 c -0.48757,-0.38353 -0.69966,-0.86164 -0.81528,-1.83786 -0.19674,-1.66114 -0.61905,-2.47489 -2.29521,-4.42263 -1.86817,-2.17087 -2.69541,-3.95473 -2.85257,-6.15131 -0.12278,-1.71594 -0.0956,-1.82313 0.60091,-2.37101 0.9023,-0.70975 1.45537,-0.72306 2.30411,-0.0555 0.48756,0.38352 0.69966,0.86164 0.81528,1.83786 0.1964,1.65831 0.59185,2.42015 2.40339,4.63021 1.93158,2.35649 2.59002,3.7862 2.74569,5.96191 0.12132,1.69557 0.0931,1.80592 -0.60221,2.35283 -0.9023,0.70975 -1.45537,0.72306 -2.30411,0.0554 z m 9.26042,0 c -0.48757,-0.38353 -0.69966,-0.86164 -0.81528,-1.83786 -0.19674,-1.66114 -0.61905,-2.47489 -2.29521,-4.42263 -1.86817,-2.17087 -2.69541,-3.95473 -2.85258,-6.15131 -0.12277,-1.71594 -0.0956,-1.82313 0.60091,-2.37101 0.90231,-0.70975 1.45538,-0.72306 2.30411,-0.0555 0.48757,0.38352 0.69966,0.86164 0.81529,1.83786 0.1964,1.65831 0.59184,2.42015 2.40339,4.63021 1.931578,2.35649 2.590018,3.7862 2.745688,5.96191 0.12131,1.69557 0.0931,1.80592 -0.60221,2.35283 -0.90231,0.70975 -1.45538,0.72306 -2.304108,0.0554 z m 6.961578,-1.07398 c 1.02288,-1.91913 2.44461,-3.25861 4.44223,-4.18527 2.11649,-0.98179 5.09075,-0.98179 7.20725,0 2.01275,0.93367 3.55941,2.39385 4.49154,4.2404 l 0.77599,1.53722 h -8.88286 -8.88287 z"
       id="path248" /></g></svg>
